<?xml version="1.0" standalone="no"?>
<!DOCTYPE svg PUBLIC "-//W3C//DTD SVG 20010904//EN"
 "http://www.w3.org/TR/2001/REC-SVG-20010904/DTD/svg10.dtd">
<svg version="1.0" xmlns="http://www.w3.org/2000/svg"
 width="150px" height="58.88671875px" viewBox="0 0 1024.000000 402.000000"
 preserveAspectRatio="xMidYMid meet">

<g transform="translate(0.000000,402.000000) scale(0.100000,-0.100000)"
fill="#FFF" stroke="none">
<path d="M2797 3944 c-1 -1 -159 -4 -352 -8 -376 -7 -407 -9 -531 -31 -348
-63 -605 -268 -796 -635 -24 -47 -51 -103 -60 -125 -9 -22 -27 -65 -41 -95
-43 -93 -85 -211 -163 -455 -27 -82 -29 -102 -29 -235 1 -137 2 -149 30 -215
21 -51 46 -87 90 -132 38 -40 55 -63 45 -63 -28 0 -142 -40 -204 -72 -78 -39
-159 -102 -229 -178 -52 -56 -137 -171 -137 -185 0 -3 -10 -22 -23 -43 -13
-20 -40 -77 -61 -127 -21 -49 -44 -103 -51 -120 -7 -16 -30 -73 -50 -125 -21
-52 -41 -104 -45 -115 -102 -256 -133 -411 -111 -552 23 -150 92 -244 222
-306 125 -59 152 -61 738 -53 696 9 802 13 823 32 9 9 26 41 39 72 30 77 43
109 68 164 11 26 21 51 21 54 0 3 7 22 16 42 9 21 20 46 24 57 4 11 15 36 23
55 8 19 40 100 71 180 64 164 106 240 145 262 27 16 91 31 91 22 0 -2 -24 -33
-54 -68 -66 -79 -137 -186 -160 -246 -58 -145 -81 -262 -73 -365 6 -84 30
-138 82 -183 83 -73 163 -86 498 -78 144 3 413 9 597 13 184 3 371 7 415 8 44
1 106 3 138 4 l58 1 34 74 c19 40 35 77 35 80 0 3 9 28 21 54 12 26 25 56 29
67 4 11 15 36 23 55 8 19 36 87 62 150 26 63 53 129 60 145 8 17 22 53 33 80
11 28 32 75 46 107 l26 56 65 4 c46 2 65 -1 65 -9 0 -14 -31 -95 -67 -173 -80
-174 -133 -337 -133 -406 0 -155 85 -244 264 -275 73 -12 484 -8 519 6 10 4
23 17 28 29 5 11 13 28 18 36 5 8 14 27 21 42 l13 28 36 -42 c43 -50 128 -91
224 -107 96 -17 608 -11 630 7 8 7 23 28 31 47 l17 35 51 -35 c28 -19 83 -45
122 -57 67 -21 89 -23 356 -22 390 0 655 4 681 11 12 4 29 22 39 45 l17 39 32
-26 c93 -79 348 -102 713 -64 143 15 330 70 359 106 17 20 43 17 33 -4 -4 -10
-9 -34 -12 -55 -6 -56 11 -61 207 -54 91 3 274 6 406 7 300 3 413 20 566 88
176 78 338 284 403 513 30 105 22 226 -19 309 l-24 45 31 29 c17 16 37 45 45
65 8 19 24 54 34 77 10 23 19 44 19 48 0 5 14 37 66 153 13 29 24 55 24 57 0
3 9 24 20 48 38 83 61 150 55 164 -4 13 -50 14 -308 9 -358 -8 -415 -11 -527
-32 -125 -23 -270 -96 -359 -179 -38 -36 -71 -65 -75 -65 -3 0 -6 7 -6 17 0
31 -50 101 -98 136 -81 60 -180 87 -319 87 -52 0 -73 4 -72 13 0 6 17 50 37
97 l37 85 305 2 c168 1 379 4 469 6 189 5 182 2 225 112 16 39 34 84 41 100 7
17 41 98 75 180 34 83 72 173 85 200 12 28 26 61 30 75 4 14 21 54 37 90 91
199 127 313 132 414 9 229 -126 372 -399 422 -80 15 -151 18 -355 19 -261 0
-290 -2 -420 -29 -93 -18 -148 -38 -215 -76 -54 -31 -140 -107 -168 -149 l-16
-24 -18 34 c-74 140 -265 216 -563 223 -431 10 -724 -86 -920 -301 -28 -30
-52 -54 -54 -52 -2 2 -12 29 -22 59 -21 61 -96 146 -153 175 -90 45 -145 58
-288 64 l-142 6 28 60 c15 33 38 85 52 115 13 30 41 88 62 129 21 41 36 79 33
86 -2 7 -20 11 -43 10 -21 -2 -200 -6 -398 -10 -198 -4 -368 -11 -378 -16 -17
-10 -58 -82 -72 -129 -4 -14 -22 -56 -39 -95 -18 -38 -38 -85 -45 -102 l-13
-33 -202 -1 c-376 -2 -500 -20 -647 -94 -93 -47 -259 -185 -259 -215 0 -5 -4
-10 -9 -10 -5 0 -11 19 -15 42 -15 95 -72 177 -161 233 -49 31 -61 36 -135 56
-34 9 -598 11 -830 3 -63 -2 -121 -4 -128 -4 -7 0 -20 -16 -29 -35 -14 -30
-22 -35 -50 -35 -38 0 -40 5 -14 63 96 219 201 479 201 500 0 16 -7 28 -19 32
-14 4 -247 4 -254 -1z m93 -141 c0 -7 -4 -21 -9 -31 -13 -25 -51 -111 -51
-116 0 -3 -18 -44 -40 -91 -22 -47 -40 -90 -40 -95 0 -5 -9 -25 -20 -45 -11
-20 -20 -42 -20 -49 0 -22 -30 -25 -320 -27 -151 -2 -302 -7 -335 -12 -130
-20 -230 -90 -301 -210 -19 -32 -34 -60 -34 -62 0 -2 -16 -38 -35 -79 -19 -42
-35 -79 -35 -82 0 -3 -9 -25 -20 -50 -42 -92 -101 -251 -110 -294 -10 -55 0
-77 48 -97 30 -13 89 -14 415 -8 l379 7 -7 -23 c-4 -13 -19 -49 -32 -79 -26
-59 -38 -87 -52 -122 -5 -13 -18 -44 -30 -70 -12 -26 -33 -78 -47 -115 -15
-38 -30 -71 -34 -76 -11 -13 -726 -20 -810 -9 -306 44 -429 207 -375 498 9 49
22 109 29 134 8 25 24 79 36 120 27 89 78 226 116 307 14 32 34 78 44 103 48
122 162 297 254 391 128 131 261 205 449 249 116 27 140 28 552 36 204 3 371
7 373 9 1 1 16 2 32 2 18 0 30 -6 30 -14z m3230 -150 c0 -13 -90 -225 -127
-298 -46 -93 -35 -110 64 -100 128 13 325 7 379 -10 111 -37 179 -103 206
-199 17 -65 15 -184 -5 -240 -25 -69 -162 -403 -183 -446 -32 -65 -115 -169
-177 -221 -145 -121 -294 -161 -672 -180 -422 -22 -532 -2 -586 102 -22 44
-25 132 -8 207 12 52 15 61 53 145 14 32 26 61 26 65 0 5 11 32 25 60 14 29
25 54 25 57 0 2 14 34 30 70 17 36 30 68 30 70 0 2 12 30 26 62 14 32 30 67
34 78 5 11 15 36 23 55 19 45 39 91 70 160 14 30 42 96 62 145 21 50 46 110
57 135 23 52 37 83 69 160 50 120 43 114 155 120 191 10 424 11 424 3z m3395
-348 c150 -40 233 -131 243 -264 4 -59 0 -80 -32 -171 -20 -58 -43 -118 -51
-134 -8 -16 -15 -33 -15 -37 0 -4 -13 -36 -29 -71 -16 -35 -55 -126 -86 -203
-32 -77 -70 -167 -85 -200 -15 -33 -39 -92 -54 -131 -43 -113 -13 -103 -318
-111 l-268 -6 14 29 c8 16 42 97 76 179 34 83 70 169 81 192 10 23 19 44 19
47 0 3 11 29 24 58 83 181 147 353 144 386 -5 60 -36 74 -162 73 -59 0 -116
-5 -127 -11 -24 -13 -68 -105 -164 -340 -26 -63 -56 -135 -67 -160 -42 -94
-48 -108 -48 -114 0 -3 -11 -29 -24 -58 -13 -29 -38 -87 -55 -128 -18 -41 -39
-92 -48 -112 l-17 -38 -258 0 c-142 0 -258 4 -258 8 0 5 11 32 25 60 14 29 25
54 25 57 0 2 12 30 26 62 36 82 46 105 54 128 4 11 12 31 18 45 14 34 62 150
72 175 4 11 17 41 29 67 12 26 21 50 21 53 0 4 9 26 20 51 11 24 48 110 81
192 33 81 75 171 95 200 63 95 142 163 234 202 100 42 173 49 495 46 258 -2
310 -5 370 -21z m-1725 5 c166 -5 293 -44 359 -111 45 -45 63 -94 65 -174 1
-76 -17 -131 -112 -345 -11 -25 -45 -108 -77 -185 -94 -232 -101 -244 -175
-315 -157 -151 -397 -224 -775 -237 -205 -7 -293 4 -368 45 -72 39 -113 89
-127 158 -21 102 -4 167 145 540 94 235 127 296 208 381 147 155 316 223 597
240 58 3 106 6 107 7 1 0 19 0 40 0 21 -1 72 -3 113 -4z m-3922 -21 c63 -13
133 -50 166 -90 13 -16 34 -55 46 -86 29 -78 24 -194 -15 -308 -15 -44 -30
-84 -34 -90 -4 -5 -16 -32 -26 -60 -10 -27 -27 -70 -38 -95 -10 -25 -26 -59
-33 -77 -8 -17 -14 -34 -14 -37 0 -3 -14 -36 -31 -73 -17 -38 -40 -90 -51
-117 -18 -46 -46 -112 -68 -161 -5 -11 -20 -46 -34 -77 l-25 -58 -73 -1 c-40
0 -111 -2 -158 -4 -47 -1 -258 -4 -470 -5 -316 -1 -394 1 -438 13 -167 48
-201 140 -130 352 64 194 162 333 293 416 120 76 171 84 550 88 266 2 275 4
301 66 18 44 18 51 -3 60 -18 7 -574 7 -646 1 -33 -4 -37 -2 -31 12 3 10 15
40 26 67 10 28 23 59 27 70 5 11 18 40 29 65 10 25 26 62 33 84 8 21 23 41 34
45 11 4 148 9 305 10 157 2 286 4 287 5 6 5 176 -6 221 -15z m1412 -9 c12 0
-1 -37 -50 -150 -23 -52 -48 -111 -56 -130 -28 -66 -43 -85 -66 -87 -13 0 -85
-2 -160 -4 -152 -2 -159 -5 -191 -79 -8 -19 -22 -51 -30 -70 -8 -19 -54 -129
-102 -245 -95 -229 -159 -383 -180 -430 -7 -16 -23 -54 -35 -82 l-22 -53 -102
-2 c-55 0 -108 0 -116 1 -33 4 -179 10 -249 10 -57 1 -71 4 -63 14 5 6 35 75
67 152 31 77 63 154 70 170 8 17 39 91 71 165 31 74 62 149 69 165 7 17 31 74
53 128 65 157 107 224 201 318 105 105 196 154 351 190 49 11 485 30 518 22 8
-2 17 -3 22 -3z m-2413 -88 c-3 -17 -21 -63 -40 -103 -95 -207 -84 -191 -149
-229 -85 -48 -146 -106 -202 -189 -26 -39 -51 -73 -56 -76 -5 -3 -173 -8 -374
-12 -319 -5 -366 -4 -366 9 0 37 115 331 170 434 46 87 72 117 131 149 63 34
116 38 598 43 l294 4 -6 -30z m6163 -400 c0 -4 -4 -12 -8 -17 -5 -6 -21 -41
-37 -80 -34 -83 -52 -126 -93 -220 -17 -38 -43 -99 -57 -135 -15 -36 -36 -84
-46 -107 -10 -23 -19 -44 -19 -48 0 -3 -10 -27 -21 -53 -35 -78 -47 -106 -57
-133 -8 -19 -18 -25 -47 -27 -45 -3 -47 -11 35 173 11 25 20 47 20 51 0 3 11
30 25 60 14 30 25 57 25 59 0 2 11 28 24 57 40 90 76 175 76 181 0 4 11 30 24
59 13 29 38 83 54 121 30 65 32 67 66 67 20 0 36 -4 36 -8z m-3950 -11 c0 -3
-6 -18 -14 -33 -8 -14 -24 -53 -36 -85 -22 -59 -34 -87 -78 -183 -33 -73 -37
-84 -62 -160 -12 -36 -30 -84 -41 -107 -10 -24 -19 -45 -19 -48 0 -4 -10 -27
-21 -53 -44 -98 -57 -128 -63 -149 -4 -13 -15 -23 -24 -23 -37 -1 -187 -1
-194 -1 -5 1 50 141 101 256 5 11 19 45 31 75 25 62 39 96 68 160 11 25 43
104 73 175 74 183 66 174 157 177 43 2 87 4 100 4 12 1 22 -1 22 -5z m1380
-692 c0 -34 26 -85 66 -129 100 -110 237 -149 503 -144 287 6 459 37 665 120
60 24 112 42 114 39 5 -4 -14 -51 -63 -160 -13 -27 -53 -124 -91 -215 -37 -91
-72 -171 -77 -177 -7 -10 -16 -3 -36 25 -40 53 -98 102 -156 128 -88 41 -173
47 -513 40 -335 -7 -373 -12 -391 -58 -5 -13 -22 -52 -38 -88 -17 -36 -63
-146 -103 -245 -40 -99 -83 -188 -94 -198 -62 -54 -131 -128 -162 -174 -19
-29 -39 -55 -46 -59 -6 -4 -58 -9 -115 -11 l-104 -4 16 38 c9 21 26 60 36 87
11 27 29 70 40 95 11 25 24 55 29 66 4 11 17 40 28 65 11 25 45 108 76 185 32
77 64 156 73 175 15 35 18 42 46 110 8 19 21 51 30 70 8 19 27 64 42 100 77
185 86 201 154 284 54 65 71 73 71 35z m-1536 -130 l19 -32 -29 7 c-36 9 -34
7 -27 34 7 30 15 28 37 -9z m-2587 -28 c39 -46 113 -84 198 -101 65 -14 461
-16 885 -5 129 4 306 8 393 9 l158 3 -56 -49 c-64 -58 -119 -146 -170 -273
-20 -49 -38 -91 -40 -93 -2 -2 -25 20 -51 48 -53 56 -78 72 -163 102 -53 18
-87 19 -582 18 -496 0 -607 -3 -722 -15 -60 -7 -220 -59 -264 -86 -18 -11 -33
-17 -33 -12 0 9 84 212 127 306 l27 57 75 0 c42 0 87 6 101 13 13 7 36 36 49
65 14 28 27 52 30 52 2 0 19 -18 38 -39z m3803 -53 c-8 -18 -26 -61 -42 -96
-15 -34 -28 -65 -28 -68 0 -3 -9 -24 -19 -47 -10 -23 -35 -82 -56 -132 -20
-49 -43 -103 -50 -120 -7 -16 -23 -55 -35 -85 -12 -30 -32 -77 -45 -105 -12
-27 -26 -61 -30 -75 -4 -14 -18 -47 -30 -75 -13 -27 -35 -79 -50 -115 -15 -36
-33 -78 -40 -95 -32 -72 -62 -142 -75 -174 -24 -61 -6 -64 278 -47 28 2 52 0
52 -3 0 -3 -12 -38 -26 -76 -14 -39 -30 -83 -34 -100 -5 -16 -20 -68 -35 -115
-15 -47 -29 -92 -32 -102 -3 -9 -16 -19 -29 -22 -13 -4 -137 -5 -276 -3 -239
3 -256 4 -303 26 -62 28 -82 46 -106 93 -39 77 -12 208 91 433 15 33 31 71 35
85 4 14 21 53 36 88 16 34 29 65 29 68 0 3 9 24 19 47 11 23 49 116 86 207 37
91 76 185 87 210 11 25 24 54 28 65 32 80 54 134 65 160 7 17 23 54 36 83 12
28 27 52 33 53 6 0 31 2 56 4 25 2 75 7 112 10 80 7 113 13 218 35 30 7 62 16
70 20 22 12 24 4 10 -32z m-4590 -43 c184 -3 338 -5 342 -5 3 0 -5 -22 -18
-50 -13 -27 -24 -52 -24 -55 0 -3 -15 -38 -33 -77 -19 -40 -44 -97 -57 -125
-22 -49 -26 -53 -59 -53 -142 -2 -416 -11 -464 -15 -32 -2 -79 -14 -104 -25
-120 -53 -182 -136 -280 -377 -18 -46 -49 -122 -69 -170 -24 -58 -37 -105 -37
-137 -1 -44 3 -52 32 -76 18 -15 51 -31 74 -35 41 -6 307 -7 455 -1 l74 4 -7
-26 c-4 -15 -15 -44 -25 -67 -10 -22 -30 -69 -45 -105 -103 -248 -92 -230
-144 -230 -25 0 -170 -3 -321 -6 -226 -5 -289 -3 -354 10 -266 53 -337 233
-226 576 36 110 81 233 109 292 11 26 21 49 21 53 0 8 34 84 95 212 100 209
225 347 387 426 102 50 218 78 298 71 25 -3 196 -7 380 -9z m6810 7 c0 -4 -6
-16 -13 -27 -7 -11 -20 -36 -27 -55 -8 -19 -31 -73 -52 -119 -60 -131 -65
-126 137 -126 192 0 254 -13 316 -64 85 -71 93 -169 30 -359 -56 -167 -177
-463 -219 -537 -86 -147 -152 -212 -277 -270 -136 -64 -279 -85 -581 -86 -194
-1 -213 0 -268 21 -66 25 -101 57 -109 98 -7 35 8 111 32 164 10 24 31 72 46
108 15 36 33 79 40 95 7 17 23 55 35 85 27 66 41 100 69 162 11 26 21 50 21
53 0 4 9 25 19 48 10 23 51 121 91 217 39 96 78 189 85 205 8 17 24 54 35 84
12 30 29 73 39 95 21 46 69 159 82 194 8 22 9 22 239 22 126 0 230 -3 230 -8z
m-2838 -29 c-4 -10 -18 -40 -31 -68 -36 -78 -51 -113 -65 -153 -12 -36 -15
-37 -64 -40 -29 -2 -52 -1 -52 1 0 5 24 65 45 112 8 17 27 60 44 98 l30 67 50
0 c44 0 49 -2 43 -17z m-814 -18 c2 -2 -9 -29 -23 -62 -15 -32 -34 -76 -43
-98 -8 -22 -18 -43 -21 -47 -3 -3 -71 -9 -150 -12 -79 -4 -153 -12 -163 -17
-25 -13 -51 -74 -43 -100 4 -10 14 -20 23 -20 40 -4 258 4 266 9 13 8 4 -17
-58 -163 -74 -172 -79 -180 -113 -181 -15 0 -70 -1 -121 -2 -115 -2 -120 -6
-181 -158 -24 -60 -54 -131 -66 -159 -13 -27 -33 -75 -45 -105 -12 -30 -28
-68 -35 -85 -7 -16 -43 -102 -79 -190 -37 -87 -70 -162 -74 -166 -8 -8 -432
-24 -432 -17 0 3 11 33 25 69 26 64 30 74 58 139 8 19 32 76 52 125 21 50 46
110 57 135 11 25 24 54 28 65 4 11 15 36 24 57 9 20 16 39 16 42 0 3 9 26 20
51 35 79 56 128 82 195 15 36 55 137 89 224 76 191 132 289 205 355 120 110
207 132 494 124 113 -3 206 -7 208 -8z m387 -12 c88 -3 162 -7 164 -9 2 -2
-26 -74 -63 -160 -53 -122 -65 -158 -56 -169 9 -11 34 -13 117 -9 85 4 105 3
100 -8 -70 -169 -110 -264 -113 -267 -1 -2 -50 -5 -108 -6 -114 -4 -136 -12
-156 -59 -7 -17 -21 -49 -30 -71 -10 -22 -30 -69 -45 -105 -15 -36 -36 -84
-46 -107 -10 -23 -19 -44 -19 -47 0 -3 -16 -40 -35 -82 -66 -143 -64 -146 94
-142 61 2 111 3 111 3 0 0 -27 -65 -60 -145 -33 -80 -67 -151 -77 -158 -27
-19 -344 -21 -435 -2 -71 16 -133 64 -142 113 -11 61 32 223 91 337 7 14 13
28 13 33 0 4 10 29 21 55 43 94 50 112 64 152 14 40 21 58 64 152 11 26 21 51
21 54 0 3 7 21 15 40 34 77 46 105 105 249 34 83 69 166 77 185 18 41 23 55
54 134 l24 58 45 -6 c25 -4 117 -9 205 -13z m4905 -232 c0 -5 -4 -20 -10 -33
-5 -13 -38 -90 -73 -173 l-63 -150 -220 3 c-246 3 -254 2 -291 -63 -27 -48
-27 -47 -5 -74 15 -20 29 -22 147 -27 111 -4 138 -8 185 -30 30 -14 66 -35 79
-47 93 -86 78 -271 -37 -457 -112 -182 -295 -276 -557 -286 -256 -10 -625 -9
-625 2 0 13 17 55 60 150 17 35 30 66 30 69 0 5 61 139 66 144 6 6 116 10 380
11 283 2 301 6 330 76 26 62 19 64 -210 63 -186 -2 -204 0 -242 19 -47 24 -91
72 -100 109 -15 60 10 180 59 283 123 257 329 389 637 407 58 3 106 6 107 7 1
1 81 3 178 5 112 1 175 -1 175 -8z m-2696 -91 c102 -34 186 -130 186 -214 0
-34 -45 -162 -95 -271 -14 -31 -25 -58 -25 -61 0 -3 -9 -24 -19 -47 -10 -23
-45 -105 -76 -182 -32 -77 -66 -160 -77 -185 -11 -25 -24 -54 -28 -65 -15 -39
-62 -150 -76 -182 -8 -18 -19 -35 -25 -39 -20 -12 -729 -17 -803 -6 -98 16
-172 56 -198 106 -47 92 -7 267 99 436 44 69 83 111 151 162 110 82 169 95
461 102 l205 5 28 30 c30 32 36 72 15 89 -9 8 -100 9 -295 5 -292 -6 -294 -5
-273 35 5 9 19 42 31 72 12 30 32 78 45 105 12 28 25 60 29 72 4 11 19 29 34
39 23 16 55 19 237 22 116 1 219 4 230 5 49 5 179 -13 239 -33z m-3879 -14
c102 -36 150 -88 164 -175 5 -29 4 -72 0 -97 -8 -40 -49 -151 -84 -229 -8 -16
-24 -55 -35 -85 -22 -55 -31 -78 -68 -160 -11 -25 -41 -97 -67 -160 -26 -63
-53 -128 -60 -145 -8 -16 -21 -48 -30 -70 -9 -22 -23 -57 -32 -77 l-17 -38
-120 0 c-67 -1 -235 -3 -373 -6 -327 -8 -417 7 -468 74 -17 23 -20 42 -19 132
1 91 5 116 31 185 74 198 146 292 266 349 90 43 101 44 382 52 127 3 238 10
248 15 23 13 47 72 40 100 l-6 22 -284 -7 c-206 -5 -283 -4 -283 4 0 6 9 30
19 53 10 23 31 71 46 107 15 36 36 84 46 107 10 23 19 47 19 52 0 11 198 17
490 15 112 0 157 -5 195 -18z m-815 11 c0 -2 -18 -46 -40 -98 -22 -52 -44
-103 -49 -114 -5 -11 -19 -42 -32 -68 l-24 -48 -95 -3 c-59 -2 -108 -9 -130
-19 -80 -36 -144 -115 -195 -242 -15 -38 -33 -83 -41 -100 -7 -16 -22 -55 -34
-85 -11 -30 -27 -68 -34 -85 -8 -16 -33 -77 -56 -135 -23 -58 -53 -129 -66
-158 -13 -29 -24 -57 -24 -62 0 -5 -5 -12 -12 -16 -15 -10 -428 -18 -428 -9 0
4 6 21 14 38 11 27 34 81 76 182 4 11 15 36 23 55 9 19 25 60 36 90 12 30 25
64 30 75 5 11 16 36 24 55 9 19 48 114 87 210 99 243 124 285 215 376 83 81
213 134 390 157 37 5 365 8 365 4z m-949 -174 c-16 -32 -53 -114 -81 -183 -58
-139 -68 -163 -100 -235 -12 -27 -26 -59 -30 -71 -10 -27 -29 -29 -316 -33
-239 -3 -235 -5 -215 92 7 34 16 67 21 72 4 6 17 37 29 70 60 163 133 274 205
313 37 19 123 26 349 30 l168 3 -30 -58z m3529 -258 c0 -2 -17 -44 -39 -92
-21 -48 -42 -99 -46 -113 -4 -14 -20 -53 -36 -86 l-28 -62 -50 -3 c-28 -2 -51
-1 -51 2 0 9 25 69 61 147 16 35 29 67 29 71 0 7 32 81 49 111 9 17 111 40
111 25z"/>
<path d="M5828 2949 c-21 -12 -61 -95 -158 -329 -28 -69 -65 -153 -80 -187
-16 -34 -32 -78 -35 -97 -6 -32 -5 -36 20 -42 35 -9 248 4 282 17 48 18 99 78
118 139 4 14 16 45 27 70 11 25 24 54 28 65 4 11 15 36 23 55 82 197 89 260
34 302 -18 14 -43 18 -132 17 -60 0 -118 -4 -127 -10z m144 -144 c-3 -20 -5
-27 -36 -97 -9 -20 -16 -39 -16 -42 0 -3 -11 -29 -24 -58 -13 -29 -35 -80 -49
-113 -25 -60 -40 -72 -94 -74 -29 -1 -29 6 1 71 13 29 47 109 75 177 57 138
63 148 94 154 38 8 52 2 49 -18z"/>
<path d="M7417 2926 c-69 -19 -111 -64 -150 -163 -9 -23 -25 -61 -35 -85 -11
-24 -32 -74 -47 -113 -16 -38 -41 -98 -57 -133 -34 -75 -37 -131 -8 -157 17
-16 36 -18 126 -17 166 3 184 18 268 227 27 66 56 138 66 161 49 110 63 207
36 248 -30 47 -101 58 -199 32z m66 -132 c7 -7 -33 -120 -73 -209 -15 -33 -35
-84 -46 -113 -10 -29 -26 -62 -37 -72 -20 -22 -83 -28 -74 -7 3 6 23 55 45
107 38 92 46 112 91 212 11 26 21 52 21 57 0 5 12 14 28 19 34 13 37 13 45 6z"/>
<path d="M3087 2525 c-42 -14 -56 -29 -87 -91 -25 -51 -25 -65 1 -98 20 -26
22 -26 142 -25 67 0 138 5 157 12 41 14 96 88 106 144 6 31 3 39 -16 55 -20
16 -40 19 -144 17 -70 0 -137 -7 -159 -14z"/>
<path d="M8108 1194 c-68 -21 -100 -65 -174 -244 -35 -85 -69 -166 -75 -180
-47 -102 -60 -144 -53 -173 9 -42 53 -57 145 -51 134 9 170 33 220 142 16 34
29 65 29 68 0 3 7 22 16 42 9 21 20 46 24 57 4 11 15 36 23 55 28 65 57 172
57 210 0 56 -43 90 -113 89 -29 0 -73 -7 -99 -15z m58 -157 c-8 -43 -90 -250
-129 -327 -9 -17 -22 -26 -45 -28 -36 -4 -36 -3 -21 35 6 15 15 37 19 48 4 11
15 36 24 57 9 20 16 39 16 42 0 3 11 29 24 58 13 29 33 74 44 101 17 39 25 47
48 47 24 0 26 -2 20 -33z"/>
<path d="M6620 749 c-76 -14 -134 -101 -116 -174 8 -33 41 -45 119 -45 132 0
169 20 213 115 29 61 30 91 5 105 -23 12 -156 12 -221 -1z"/>
<path d="M2760 732 c-61 -10 -119 -87 -120 -158 0 -60 72 -77 229 -55 61 9 86
32 121 110 25 54 25 73 1 95 -15 13 -36 16 -112 14 -52 -1 -105 -4 -119 -6z"/>
</g>
</svg>
