<?xml version="1.0" standalone="no"?>
<!DOCTYPE svg PUBLIC "-//W3C//DTD SVG 20010904//EN" "http://www.w3.org/TR/2001/REC-SVG-20010904/DTD/svg10.dtd">
<svg version="1.0" xmlns="http://www.w3.org/2000/svg"
     width="64.000000pt" height="64.000000pt" viewBox="0 0 64 64"
     preserveAspectRatio="xMidYMid meet">

    <g transform="translate(0.000000,64.000000) scale(0.006250,-0.006250)"
       fill="#ffffff" stroke="none">
        <path d="M8590 7124 c-633 -48 -1698 -117 -2510 -164 -195 -11 -438 -27 -540
-35 -102 -8 -419 -28 -705 -45 -286 -16 -576 -35 -645 -40 -69 -6 -267 -19
-440 -30 -354 -23 -634 -41 -1045 -70 -270 -19 -735 -49 -1070 -69 -235 -15
-324 -47 -423 -156 -89 -98 -89 -98 -202 -1000 -33 -264 -71 -556 -85 -650
-84 -589 -81 -653 32 -775 109 -118 178 -132 528 -106 116 9 444 32 730 51
286 19 684 46 885 60 201 13 437 29 525 35 88 5 522 34 965 65 443 30 1050 70
1350 90 878 57 1431 95 1640 110 107 8 350 24 540 35 462 27 576 37 631 54
139 43 228 125 274 256 16 44 72 464 115 855 11 105 38 339 60 520 81 686 83
722 41 818 -27 63 -102 136 -176 173 -55 27 -70 29 -175 31 -63 1 -198 -5
-300 -13z m-1350 -364 c0 -9 -115 -478 -126 -512 -5 -16 -2 -16 41 2 130 56
309 71 412 36 148 -50 223 -171 224 -361 0 -99 -18 -193 -82 -429 -68 -250
-129 -379 -229 -489 -95 -104 -225 -169 -401 -201 -77 -14 -748 -71 -754 -64
-2 2 96 410 216 908 121 498 229 948 242 1000 l22 95 65 3 c36 2 119 7 185 11
176 12 185 12 185 1z m-2366 -367 c-76 -312 -272 -1136 -285 -1202 -13 -62
-13 -63 11 -83 22 -18 35 -20 105 -14 248 18 306 19 301 5 -3 -8 -28 -111 -57
-229 -28 -118 -54 -218 -58 -222 -7 -7 -468 -38 -567 -38 -127 0 -218 55 -243
147 -16 58 -13 161 8 264 25 121 351 1477 362 1507 8 20 16 22 81 23 40 1 107
5 148 9 41 4 111 7 156 8 l81 2 -43 -177z m-594 35 c-16 -57 -43 -164 -61
-239 l-33 -137 -81 -6 c-44 -4 -168 -13 -275 -21 -210 -15 -264 -27 -321 -74
-62 -51 -83 -108 -163 -434 -42 -170 -80 -332 -84 -360 -11 -71 1 -113 41
-138 30 -19 42 -20 182 -14 83 3 222 12 310 19 88 8 161 13 161 12 3 -2 -114
-467 -117 -470 -8 -7 -579 -46 -669 -46 -52 0 -126 5 -163 10 -224 33 -335
204 -298 459 27 180 206 867 259 989 121 280 339 452 630 498 93 15 537 50
653 53 l56 1 -27 -102z m-1313 -10 c-10 -28 -88 -308 -102 -370 -8 -37 -18
-73 -21 -81 -6 -16 -47 -21 -289 -37 -352 -23 -348 -22 -419 -64 -53 -31 -103
-87 -127 -142 -18 -41 -147 -551 -168 -667 -14 -76 2 -119 53 -144 32 -15 50
-15 183 -5 260 20 503 35 508 31 3 -4 -69 -283 -114 -439 l-10 -35 -288 -23
c-421 -33 -498 -36 -580 -23 -142 25 -245 98 -300 216 -26 55 -28 69 -27 175
1 111 4 130 97 504 54 214 112 433 130 487 80 232 210 386 413 488 156 78 249
94 739 125 280 18 328 19 322 4z m6009 -25 c-18 -59 -65 -269 -71 -317 -4 -32
-13 -59 -19 -62 -6 -2 -122 -10 -258 -18 -309 -19 -338 -29 -338 -119 0 -56 5
-57 232 -87 119 -16 165 -27 208 -48 92 -45 127 -121 117 -252 -17 -213 -108
-398 -241 -489 -111 -77 -298 -108 -867 -146 l-95 -7 47 187 c26 103 49 189
52 191 2 3 130 13 283 24 292 21 350 32 379 73 21 30 19 84 -3 96 -10 5 -90
21 -178 35 -88 14 -185 34 -216 46 -153 57 -191 189 -123 425 35 119 84 206
164 286 131 131 243 160 716 188 227 13 217 13 211 -6z m-2701 -232 c111 -49
169 -143 167 -271 0 -86 -14 -153 -112 -560 -39 -162 -87 -362 -106 -445 -20
-82 -37 -151 -38 -152 -7 -8 -824 -64 -868 -59 -114 11 -201 78 -229 174 -51
175 74 501 237 622 59 42 150 86 219 104 33 8 146 27 250 41 105 15 191 28
192 29 2 1 7 27 13 56 12 63 -2 94 -46 103 -15 2 -117 -1 -228 -9 -111 -7
-234 -15 -273 -18 -40 -2 -73 -1 -73 3 0 14 91 365 96 370 2 3 62 8 132 13 70
4 186 12 257 17 211 15 351 9 410 -18z"/>
        <path d="M7068 5893 l-37 -4 -21 -92 c-11 -51 -52 -215 -90 -366 l-68 -274 92
6 c153 10 232 47 281 131 29 50 125 416 127 484 1 54 -25 92 -73 109 -32 11
-132 14 -211 6z"/>
        <path d="M5790 5319 c-97 -11 -157 -32 -202 -69 -44 -36 -78 -103 -78 -153 0
-67 41 -77 243 -62 l94 7 31 132 c18 73 32 138 32 144 0 13 -11 13 -120 1z"/>
    </g>
</svg>